PathFileType	4	(X/Y/Z)	Patient4_TMGait_0pt6_01_right_26.trc.trc
DataRate	CameraRate	NumFrames	NumMarkers	Units	OrigDataRate	OrigDataStartFrame	OrigNumFrames
82.840236686391	82.840236686391	4	33	mm	82.840236686391	71	       141
Frame#	Time	Sacral			L.Shoulder			Chest			R.Shoulder			Neck			R.ASIS			L.ASIS			R.Thigh.Superior			R.Thigh.Lateral			R.Thigh.Inferior			R.Patella			L.Thigh.Superior			L.Thigh.Lateral			L.Thigh.Inferior			L.Patella			L.Shank.Superior			L.Shank.Lateral			L.Shank.Inferior			R.Shank.Superior			R.Shank.Lateral			R.Shank.Inferior			R.Heel			R.Midfoot.Superior			R.Midfoot.Lateral			R.Toe			L.Heel			L.Midfoot.Lateral			L.Midfoot.Superior			L.Toe			L.Elbow			L.Wrist			R.Elbow			R.Wrist			
		X1	Y1	Z1	X2	Y2	Z2	X3	Y3	Z3	X4	Y4	Z4	X5	Y5	Z5	X6	Y6	Z6	X7	Y7	Z7	X8	Y8	Z8	X9	Y9	Z9	X10	Y10	Z10	X11	Y11	Z11	X12	Y12	Z12	X13	Y13	Z13	X14	Y14	Z14	X15	Y15	Z15	X16	Y16	Z16	X17	Y17	Z17	X18	Y18	Z18	X19	Y19	Z19	X20	Y20	Z20	X21	Y21	Z21	X22	Y22	Z22	X23	Y23	Z23	X24	Y24	Z24	X25	Y25	Z25	X26	Y26	Z26	X27	Y27	Z27	X28	Y28	Z28	X29	Y29	Z29	X30	Y30	Z30	X31	Y31	Z31	X32	Y32	Z32	X33	Y33	Z33	

71	31.885000000000	731.063264660273	1001.839048353206	522.543519269172	866.819785558995	1428.572888681641	322.612725315799	996.533848029570	1359.579805527599	463.045788232527	943.947927401621	1432.123180872689	647.719470917363	876.648410286729	1487.469371978006	476.069157827508	965.076342938147	933.104019155403	611.146476100430	922.224461704813	954.394739598863	338.594869645558	959.114726456978	719.909758048146	581.478003355394	857.887747370925	626.756082701006	648.165711168092	910.883862717780	562.429507660452	563.008438922160	890.814255555865	478.209007809957	566.858435857975	999.608180972606	769.648376604953	370.757068548567	946.830720625053	639.112607994063	300.624228698809	1049.656540016950	580.808939084282	361.717989392118	1075.919550406909	518.731788940165	361.062065230117	1064.542328633980	447.048672555706	352.201623713569	1007.308155574710	311.608292085047	307.334326850868	1102.196032942895	221.502053880181	363.642422062534	852.371479942332	393.484612577752	574.871400807676	771.921279964011	297.775984789503	638.608002610472	796.915231211279	200.366183702657	570.642979517356	646.176167417823	42.798606995990	539.760928010939	817.864393071718	95.788730278258	573.903185835636	729.577043759091	36.250211293995	613.877136235100	937.901897122250	42.221663598564	601.913807368436	1030.656944240096	43.236612584334	412.733700069071	1102.337469645666	44.532741136751	330.563749996325	1172.009286989078	123.115950271456	344.875828119474	1305.342638467464	93.973442236823	318.037760907868	729.171532484798	1095.932566254751	247.732693807597	685.107970400578	840.952029178873	266.178868143927	1090.429766530921	1125.512647028435	763.213265309124	1333.877788938095	1174.456567795635	711.429939428347	
72	31.897071428571	732.231015469223	1000.416883941335	520.408068132787	866.462508802577	1427.261794942938	320.622324041750	996.486277063120	1358.724292907422	460.956787445898	943.824511277453	1431.201322497819	645.682712566070	876.456105085933	1486.316725603288	473.986165650941	966.155496437124	931.877065204719	609.413381989180	923.745540463104	953.286251067055	336.677734667799	959.623342028027	718.455373782578	580.064438694906	857.645043020627	625.646083111213	646.461015170417	910.657330333254	560.778524557738	561.636711260606	889.778459035359	476.168916736563	565.237643782418	1002.092375930594	768.911988040681	368.700633763795	947.607019718361	637.451549417957	300.590704508923	1051.064870901055	579.609435255492	360.549272346036	1075.909542821352	516.105368411362	361.028397840455	1063.577083445724	443.754060189348	352.789730832925	1003.269882840216	309.492083605770	308.324442837666	1095.678364339399	217.459282309005	365.472127889333	850.152165759654	391.898099511469	573.426668951977	768.359354742756	297.549719399298	637.588730613453	791.563888321466	199.576905961045	569.926936639641	638.953862357291	43.018596305115	539.808022958112	810.736222314421	95.740513267073	573.795975879268	722.357884114101	36.260443380588	613.784983075752	930.712652591359	41.784531467300	602.011132583860	1019.436556749673	41.837499208384	414.758716032229	1090.692964432012	41.898357573630	332.094189818983	1162.883859987651	117.799521004792	347.121140429879	1295.284467822638	84.609642871509	319.112225122205	730.065081985871	1094.071656035540	245.646646214661	687.803355561921	838.743220426104	263.764211179651	1089.610587203627	1124.248968001344	761.658996116121	1332.724576033017	1173.653317220424	709.339142067200	
73	31.909142857143	733.502452430142	998.959627644222	518.057792580860	866.235603015283	1425.917201828529	318.475029533559	996.478955836189	1357.940319385591	458.849359101969	943.505362719752	1430.318759101576	643.592065825414	876.253382818745	1485.189230263399	471.769754098725	967.371051541254	930.646612548821	607.701948752279	925.568238894297	952.203206939165	334.792532415760	960.392128944020	717.002117592380	578.719022843917	857.578087855145	624.529449225395	644.656032021338	910.766439395158	559.101052453145	560.248456575047	889.108486709769	473.973340974609	563.591709695489	1004.740852329545	767.939137521834	366.709795016029	948.531624771726	635.875483070889	300.399385938962	1052.449632348501	578.295609340902	359.514021011395	1075.714662342077	513.388651879987	361.152724426087	1062.505521782367	440.478387803958	353.357155573725	999.314170966325	307.416938889943	309.013434982837	1089.135560814788	213.499871014940	367.200761625693	848.147149554714	390.273583942526	571.905200581407	764.910634111840	297.407871548163	636.496051795119	786.305242676465	198.861238974861	569.203121731300	631.729474929088	43.423285461942	539.880943879553	803.686545355920	95.742456643424	573.725140679409	715.162176353401	36.352652404290	613.688369117996	923.560350485049	41.318248802042	602.121611902086	1008.060555001441	40.482874538358	416.335054676347	1079.054285272998	39.551850514878	333.313075232172	1153.666543603186	112.741900807237	349.389757272358	1285.176501678518	75.627087245238	320.407503394235	731.583470470629	1091.929778245542	243.270660105937	691.660359919780	836.163400706989	260.916636659996	1088.230113153530	1122.711916984112	760.081986455393	1331.213717598670	1171.702596435547	707.221813542334	
74	31.921214285714	734.829703495419	997.553354470798	515.522551023780	866.174366888823	1424.603710240310	316.177630415724	996.532544095030	1357.278673011533	456.738666425087	943.016830851167	1429.543995968513	641.452446733650	876.065652282534	1484.151375406743	469.425885860399	968.689472839309	929.465166442149	605.985834920047	927.614816703308	951.227232869501	332.940978109608	961.414469879120	715.610906712802	577.366039950649	857.763710080349	623.433880397992	642.722368680708	911.274061510554	557.454164287922	558.777292021334	888.918229168841	471.640412222033	561.909568144447	1007.420493336402	766.797154350844	364.836030634233	949.575736368270	634.488043632039	299.996595268987	1053.732253177668	576.966031985581	358.640724373478	1075.343436825737	510.773493144321	361.376949830792	1061.381020669562	437.424797585558	353.829474583284	995.657451744309	305.515573563551	309.363772047574	1082.902151133180	209.881331885808	368.742424454257	846.429064474790	388.642621577932	570.301877664005	761.641954743012	297.411143009281	635.329013751340	781.190920884807	198.277373276165	568.477132002554	624.516890828695	44.127759075967	539.990292013023	796.753008325521	95.806729300508	573.691760349602	708.002501424991	36.587195771347	613.600223235880	916.454461931662	40.833424540118	602.236382841803	997.116826033979	39.298277868351	417.487957620833	1067.985058402701	37.649072056432	334.228348894835	1144.776375674131	108.277140297147	351.558012083429	1275.473431808636	67.606128776405	321.797080482429	733.768903216300	1089.575627381759	240.623143698243	696.657417972080	833.306559083443	257.658235377937	1086.276051741244	1120.959658649969	758.478343664804	1329.327107019175	1168.593455249617	705.045312285803	
